<svg width="103" height="104" viewBox="0 0 103 104" fill="none" xmlns="http://www.w3.org/2000/svg">
<path d="M3.0008 55.891L3.00103 55.8906C5.16667 52.4472 8.22906 50.1789 12.211 49.0741C16.3095 47.9369 20.3675 46.8218 24.3848 45.7289C27.7322 44.8479 30.9233 43.604 33.9572 41.9971C36.9253 40.4252 40.0703 39.1726 43.3929 38.2396L43.401 38.2373L43.4089 38.2348C45.9744 37.4211 48.5824 37.0562 51.2353 37.139C53.8555 37.2208 56.285 37.9661 58.5321 39.3794C60.7841 40.7957 62.5316 42.6331 63.7826 44.8949C65.0453 47.1779 65.8657 49.6483 66.2431 52.3098L66.243 52.3098L66.2443 52.318C66.7769 55.6735 66.9841 59.0603 66.8657 62.4789C66.745 65.9645 66.9894 69.4388 67.5985 72.9014L67.5993 72.9057C68.3571 77.0023 69.1098 81.1433 69.8574 85.3288C70.5837 89.3948 69.8657 93.1378 67.7025 96.5831C65.7478 99.6911 63.0549 101.741 59.6084 102.753C56.1759 103.76 53.0075 103.334 50.0642 101.479L50.0638 101.479C46.4003 99.1745 42.9631 96.5867 39.7518 93.7151C36.4985 90.8058 33.0163 88.1843 29.3056 85.8505C25.5948 83.5168 21.7237 81.5137 17.6924 79.8415C13.7131 78.1908 9.89189 76.2136 6.22844 73.9096C3.28026 72.0554 1.5225 69.3831 0.941894 65.8558C0.358979 62.3143 1.04169 59.0002 3.0008 55.891ZM23.1857 27.4024C20.4272 25.6676 18.7078 23.2638 18.0033 20.1711C17.2988 17.0784 17.8074 14.1671 19.5422 11.4086C21.2771 8.65013 23.6809 6.93073 26.7735 6.22619C29.8662 5.52165 32.7775 6.03024 35.536 7.76512C38.2945 9.5 40.0139 11.9037 40.7185 14.9964C41.423 18.0891 40.9144 21.0004 39.1795 23.7589C37.4447 26.5174 35.0409 28.2368 31.9482 28.9414C28.8556 29.6459 25.9443 29.1373 23.1857 27.4024ZM51.9273 22.6098C49.1688 20.8749 47.4494 18.4712 46.7449 15.3785C46.0403 12.2858 46.5489 9.3745 48.2838 6.61599C50.0187 3.85748 52.4224 2.13808 55.5151 1.43354C58.6078 0.729003 61.5191 1.2376 64.2776 2.97248C67.0361 4.70736 68.7555 7.1111 69.46 10.2038C70.1646 13.2965 69.656 16.2078 67.9211 18.9663C66.1862 21.7248 63.7825 23.4442 60.6898 24.1487C57.5971 24.8533 54.6858 24.3447 51.9273 22.6098ZM76.5079 38.069C73.7494 36.3341 72.03 33.9304 71.3254 30.8377C70.6209 27.745 71.1295 24.8337 72.8644 22.0752C74.5993 19.3167 77.003 17.5973 80.0957 16.8927C83.1884 16.1882 86.0997 16.6968 88.8582 18.4317C91.6167 20.1666 93.3361 22.5703 94.0406 25.663C94.7452 28.7557 94.2366 31.667 92.5017 34.4255C90.7668 37.184 88.3631 38.9034 85.2704 39.6079C82.1777 40.3125 79.2664 39.8039 76.5079 38.069ZM84.6372 66.0504C81.8787 64.3156 80.1593 61.9118 79.4547 58.8191C78.7502 55.7264 79.2588 52.8151 80.9937 50.0566C82.7285 47.2981 85.1323 45.5787 88.225 44.8742C91.3177 44.1697 94.2289 44.6782 96.9875 46.4131C99.746 48.148 101.465 50.5518 102.17 53.6444C102.874 56.7371 102.366 59.6484 100.631 62.4069C98.8961 65.1654 96.4923 66.8848 93.3997 67.5894C90.307 68.2939 87.3957 67.7853 84.6372 66.0504Z" fill="#636363" stroke="#636363"/>
</svg>
